<?xml version="1.0" encoding="utf-8"?>
<!-- Generator: Adobe Illustrator 26.0.1, SVG Export Plug-In . SVG Version: 6.00 Build 0)  -->
<svg version="1.1" id="Layer_1" xmlns="http://www.w3.org/2000/svg" xmlns:xlink="http://www.w3.org/1999/xlink" x="0px" y="0px"
	 viewBox="0 0 83.7 89.2" style="enable-background:new 0 0 83.7 89.2;" xml:space="preserve">
<style type="text/css">
	.st0{fill:#FFFFFF;}
</style>
<path class="st0" d="M72,88.9c-5,2.5-5-12.4-8.6-9.7c-16.1,10.6-17.5,7.9-24,5.7C30.7,82.3,9.8,73.8,3.2,60.4
	c-6.5-16.8-1.2-42.1-0.3-46C5.5,3.6,12,1.6,17.1,0.5c18.8-2.8,47.4,7.3,53.2,12.4c7.4,6.2,16.1,42.5,12.7,53.2
	c-1.1,3.4-12.4,6.5-13.6,9C67.1,78.2,77.4,86.6,72,88.9 M29.5,34.4c2.5,4,7.4,5.6,10.8,3.5s4.1-7,1.6-11.1s-7.4-5.6-10.8-3.5
	S27,30.3,29.5,34.4 M30.7,61c2.5,4,7.3,5.6,10.8,3.5c3.5-2.1,4.1-7,1.6-11s-7.3-5.6-10.8-3.5S28.2,57,30.7,61 M53.2,47.3
	c2.5,4,7.3,5.6,10.8,3.5c3.4-2.1,4.1-7,1.6-11c-2.5-4-7.4-5.6-10.8-3.5S50.7,43.3,53.2,47.3"/>
</svg>
