<svg width="33" height="33" viewBox="0 0 33 33" fill="none" xmlns="http://www.w3.org/2000/svg">
<g clip-path="url(#clip0_817_624)">
<path d="M20.7447 24.2461V26.8844C20.7447 27.934 20.3278 28.9406 19.5856 29.6827C18.8435 30.4249 17.8369 30.8418 16.7873 30.8418C15.7377 30.8418 14.7311 30.4249 13.9889 29.6827C13.2468 28.9406 12.8298 27.934 12.8298 26.8844V24.2461" stroke="#2D2F30" stroke-width="1.5" stroke-linecap="round" stroke-linejoin="round"/>
<path fill-rule="evenodd" clip-rule="evenodd" d="M12.8298 1.82056H20.7447L22.0638 7.09715L16.7872 11.0546L11.5106 7.09715L12.8298 1.82056Z" stroke="#2D2F30" stroke-width="1.5" stroke-linecap="round" stroke-linejoin="round"/>
<path d="M11.5107 7.09717L6.23407 11.0546L12.8298 24.2461L16.7873 25.5653V11.0546" stroke="#2D2F30" stroke-width="1.5" stroke-linecap="round" stroke-linejoin="round"/>
<path d="M22.0638 7.09717L27.3404 11.0546L20.7447 24.2461L16.7872 25.5653" stroke="#2D2F30" stroke-width="1.5" stroke-linecap="round" stroke-linejoin="round"/>
<path d="M20.7446 1.82056L26.0212 5.778L27.3404 11.0546" stroke="#2D2F30" stroke-width="1.5" stroke-linecap="round" stroke-linejoin="round"/>
<path d="M12.8298 1.82056L7.55322 5.778L6.23407 11.0546" stroke="#2D2F30" stroke-width="1.5" stroke-linecap="round" stroke-linejoin="round"/>
<path d="M22.0639 13.0467C22.4354 13.0467 22.7366 12.7455 22.7366 12.3739C22.7366 12.0024 22.4354 11.7012 22.0639 11.7012C21.6923 11.7012 21.3911 12.0024 21.3911 12.3739C21.3911 12.7455 21.6923 13.0467 22.0639 13.0467Z" stroke="#2D2F30" stroke-width="1.5" stroke-linecap="round" stroke-linejoin="round"/>
<path d="M11.5107 13.0467C11.8822 13.0467 12.1834 12.7455 12.1834 12.3739C12.1834 12.0024 11.8822 11.7012 11.5107 11.7012C11.1391 11.7012 10.8379 12.0024 10.8379 12.3739C10.8379 12.7455 11.1391 13.0467 11.5107 13.0467Z" stroke="#2D2F30" stroke-width="1.5" stroke-linecap="round" stroke-linejoin="round"/>
<path d="M16.7873 6.45076C17.1588 6.45076 17.46 6.14955 17.46 5.77799C17.46 5.40643 17.1588 5.10522 16.7873 5.10522C16.4157 5.10522 16.1145 5.40643 16.1145 5.77799C16.1145 6.14955 16.4157 6.45076 16.7873 6.45076Z" stroke="#2D2F30" stroke-width="1.5" stroke-linecap="round" stroke-linejoin="round"/>
</g>
<defs>
<clipPath id="clip0_817_624">
<rect width="23.0851" height="31" fill="white" transform="translate(5.24469 0.831299)"/>
</clipPath>
</defs>
</svg>
