<svg width="33" height="33" viewBox="0 0 33 33" fill="none" xmlns="http://www.w3.org/2000/svg">
<g clip-path="url(#clip0_817_623)">
<path fill-rule="evenodd" clip-rule="evenodd" d="M12.8493 1.82056H20.4212L21.6876 6.8729L16.6353 10.6589L11.5961 6.8729L12.8493 1.82056Z" stroke="#2D2F30" stroke-width="1.5" stroke-linecap="round" stroke-linejoin="round"/>
<path d="M16.6353 25.7897L20.4213 24.4705L26.7268 11.8463L21.6877 6.87309M16.6353 10.659V25.7897L12.8494 24.4705L6.54382 11.8463L11.583 6.80713L16.6353 10.659Z" stroke="#2D2F30" stroke-width="1.5" stroke-linecap="round" stroke-linejoin="round"/>
<path d="M20.4213 1.82056L25.4736 5.60651L26.7268 11.912" stroke="#2D2F30" stroke-width="1.5" stroke-linecap="round" stroke-linejoin="round"/>
<path d="M12.8494 1.82056L7.81021 5.60651L6.54382 11.912" stroke="#2D2F30" stroke-width="1.5" stroke-linecap="round" stroke-linejoin="round"/>
<path d="M20.4213 24.5364V27.056C20.4213 28.0601 20.0224 29.023 19.3124 29.733C18.6024 30.443 17.6394 30.8419 16.6353 30.8419V30.8419C15.6312 30.8419 14.6683 30.443 13.9582 29.733C13.2482 29.023 12.8494 28.0601 12.8494 27.056V24.5364" stroke="#2D2F30" stroke-width="1.5" stroke-linecap="round" stroke-linejoin="round"/>
</g>
<defs>
<clipPath id="clip0_817_623">
<rect width="22.1617" height="31" fill="white" transform="translate(5.55444 0.831299)"/>
</clipPath>
</defs>
</svg>
