<svg width="33" height="33" viewBox="0 0 33 33" fill="none" xmlns="http://www.w3.org/2000/svg">
<g clip-path="url(#clip0_817_626)">
<path d="M13.0176 16.3313H1.91035C1.72822 16.3313 1.58057 16.4789 1.58057 16.6611V27.7683C1.58057 27.9505 1.72822 28.0981 1.91035 28.0981H13.0176C13.1997 28.0981 13.3474 27.9505 13.3474 27.7683V16.6611C13.3474 16.4789 13.1997 16.3313 13.0176 16.3313Z" stroke="#2F2F2F" stroke-width="1.5" stroke-linecap="round" stroke-linejoin="round"/>
<path d="M18.5053 4.56445H7.39802C7.21589 4.56445 7.06824 4.7121 7.06824 4.89424V16.0015C7.06824 16.1836 7.21589 16.3313 7.39802 16.3313H18.5053C18.6874 16.3313 18.835 16.1836 18.835 16.0015V4.89424C18.835 4.7121 18.6874 4.56445 18.5053 4.56445Z" stroke="#2F2F2F" stroke-width="1.5" stroke-linecap="round" stroke-linejoin="round"/>
<path d="M30.272 4.56445H19.1647C18.9826 4.56445 18.835 4.7121 18.835 4.89424V16.0015C18.835 16.1836 18.9826 16.3313 19.1647 16.3313H30.272C30.4541 16.3313 30.6018 16.1836 30.6018 16.0015V4.89424C30.6018 4.7121 30.4541 4.56445 30.272 4.56445Z" stroke="#2F2F2F" stroke-width="1.5" stroke-linecap="round" stroke-linejoin="round"/>
</g>
<defs>
<clipPath id="clip0_817_626">
<rect width="31" height="25.5123" fill="white" transform="translate(0.591187 3.5752)"/>
</clipPath>
</defs>
</svg>
