<svg width="33" height="33" viewBox="0 0 33 33" fill="none" xmlns="http://www.w3.org/2000/svg">
<g clip-path="url(#clip0_817_629)">
<path d="M9.80424 5.42252L3.73685 15.9435C3.66347 16.0595 3.62451 16.194 3.62451 16.3313C3.62451 16.4686 3.66347 16.6031 3.73685 16.7191L9.80424 27.2401C9.87103 27.3609 9.96885 27.4617 10.0876 27.5321C10.2064 27.6025 10.3417 27.6399 10.4798 27.6404H22.6396C22.7776 27.6399 22.913 27.6025 23.0318 27.5321C23.1505 27.4617 23.2483 27.3609 23.3151 27.2401L29.3825 16.7191C29.4559 16.6031 29.4949 16.4686 29.4949 16.3313C29.4949 16.194 29.4559 16.0595 29.3825 15.9435L23.3151 5.42252C23.2421 5.31101 23.1416 5.22019 23.0233 5.15884C22.9049 5.09748 22.7728 5.06766 22.6396 5.07224H10.4798C10.3466 5.06766 10.2144 5.09748 10.0961 5.15884C9.97778 5.22019 9.87726 5.31101 9.80424 5.42252V5.42252Z" stroke="#2D2F30" stroke-width="1.5" stroke-linecap="round" stroke-linejoin="round"/>
<path d="M17.0226 5.07227C17.9651 5.6072 18.8425 6.2495 19.6372 6.98631C20.5481 7.82219 21.2142 8.89043 21.5637 10.0763C22.1642 12.203 21.4637 14.4548 21.7389 16.6191C21.8262 17.8992 22.3179 19.1186 23.1431 20.1012C23.9683 21.0837 25.0843 21.7788 26.3301 22.086" stroke="#2D2F30" stroke-width="0.75" stroke-linecap="round" stroke-linejoin="round"/>
<path d="M11.2429 5.07227C12.9919 5.90361 14.5934 7.01495 15.9842 8.36242C17.0036 9.38084 17.6774 10.6936 17.9108 12.1154C17.9982 13.5359 17.9353 14.9616 17.7231 16.3689C17.5144 18.4971 17.8278 20.6442 18.6364 22.6239C19.1298 23.6262 19.8407 24.5056 20.7172 25.1982C21.5937 25.8908 22.6138 26.379 23.703 26.6271" stroke="#2D2F30" stroke-width="0.75" stroke-linecap="round" stroke-linejoin="round"/>
<path d="M28.3817 18.4579C27.7848 18.327 27.229 18.0522 26.7624 17.6576C26.2959 17.263 25.9327 16.7605 25.7045 16.1936C25.0665 14.4047 25.9798 12.5532 26.3175 10.8018" stroke="#2D2F30" stroke-width="0.75" stroke-linecap="round" stroke-linejoin="round"/>
<path d="M6.80188 22.0483C9.1788 21.2227 12.3188 20.9725 14.2204 22.9491C15.3713 24.2001 16.1344 26.7897 17.8358 27.4777" stroke="#2D2F30" stroke-width="0.75" stroke-linecap="round" stroke-linejoin="round"/>
<path d="M8.81592 7.57422C10.0164 8.2112 11.0927 9.05867 11.9935 10.0762C13.0512 11.2731 13.7646 12.7345 14.0576 14.3046C14.2953 15.5557 14.483 17.8825 13.3821 18.7582C12.6315 19.3587 11.6557 18.9084 10.8801 18.5956C8.82445 17.893 6.62127 17.7378 4.48743 18.1452" stroke="#2D2F30" stroke-width="0.75" stroke-linecap="round" stroke-linejoin="round"/>
<path d="M6.80186 10.8018C7.91658 10.8475 8.98693 11.251 9.85433 11.9527C10.8676 12.9785 11.1053 16.5189 8.84101 15.6181C7.46249 15.1434 5.98587 15.0272 4.55005 15.2804" stroke="#2D2F30" stroke-width="0.75" stroke-linecap="round" stroke-linejoin="round"/>
<path d="M7.15212 31.356C7.49757 31.356 7.77762 31.0759 7.77762 30.7305C7.77762 30.385 7.49757 30.105 7.15212 30.105C6.80666 30.105 6.52661 30.385 6.52661 30.7305C6.52661 31.0759 6.80666 31.356 7.15212 31.356Z" stroke="#2D2F30" stroke-width="0.75" stroke-linecap="round" stroke-linejoin="round"/>
<path d="M3.32397 29.8547V28.6787" stroke="#2D2F30" stroke-width="0.75" stroke-linecap="round" stroke-linejoin="round"/>
<path d="M3.32397 27.5029V26.3269" stroke="#2D2F30" stroke-width="0.75" stroke-linecap="round" stroke-linejoin="round"/>
<path d="M1.56006 28.0908H2.73601" stroke="#2D2F30" stroke-width="0.75" stroke-linecap="round" stroke-linejoin="round"/>
<path d="M3.91199 28.0908H5.08794" stroke="#2D2F30" stroke-width="0.75" stroke-linecap="round" stroke-linejoin="round"/>
<path d="M25.9547 2.55765C26.3002 2.55765 26.5802 2.2776 26.5802 1.93214C26.5802 1.58669 26.3002 1.30664 25.9547 1.30664C25.6093 1.30664 25.3292 1.58669 25.3292 1.93214C25.3292 2.2776 25.6093 2.55765 25.9547 2.55765Z" stroke="#2D2F30" stroke-width="0.75" stroke-linecap="round" stroke-linejoin="round"/>
<path d="M29.7828 2.82031V3.99626" stroke="#2D2F30" stroke-width="0.75" stroke-linecap="round" stroke-linejoin="round"/>
<path d="M29.7828 5.17236V6.34831" stroke="#2D2F30" stroke-width="0.75" stroke-linecap="round" stroke-linejoin="round"/>
<path d="M31.5468 4.58423H30.3708" stroke="#2D2F30" stroke-width="0.75" stroke-linecap="round" stroke-linejoin="round"/>
<path d="M29.1949 4.58423H28.0189" stroke="#2D2F30" stroke-width="0.75" stroke-linecap="round" stroke-linejoin="round"/>
</g>
<defs>
<clipPath id="clip0_817_629">
<rect width="30.9249" height="31" fill="white" transform="translate(1.08472 0.831299)"/>
</clipPath>
</defs>
</svg>
