<svg width="33" height="33" viewBox="0 0 33 33" fill="none" xmlns="http://www.w3.org/2000/svg">
<path d="M17.5108 18.9939C13.9517 19.472 10.2333 19.9102 10.2333 21.3312V26.7761C10.2333 24.9036 16.6609 24.7442 20.6848 23.9474" stroke="#2D2F30" stroke-width="1.5" stroke-linecap="round" stroke-linejoin="round"/>
<path d="M6.50136 10.4149C12.8626 9.27285 23.8453 8.71508 23.8453 6.77618V1.3313C23.8453 4.05374 2.05249 4.05374 2.05249 6.77618V9.43221" stroke="#2D2F30" stroke-width="1.5" stroke-linecap="round" stroke-linejoin="round"/>
<path d="M17.4177 17.3471C10.9901 16.4175 2.05249 15.78 2.05249 14.0403V8.59546C2.05249 10.5344 13.0219 11.0921 19.3964 12.2209" stroke="#2D2F30" stroke-width="1.5" stroke-linecap="round" stroke-linejoin="round"/>
<path d="M28.0018 23.164L30.4188 19.5518C30.6234 19.2448 30.7342 18.8849 30.7376 18.516V15.01C30.7329 14.5564 30.5683 14.119 30.2727 13.7749L27.9886 11.1189C27.8117 10.9199 27.595 10.7603 27.3525 10.6505C27.11 10.5407 26.8471 10.4831 26.5809 10.4814H21.707C21.4405 10.4814 21.1771 10.5383 20.9343 10.6482C20.6916 10.7581 20.4751 10.9186 20.2993 11.1189L18.0151 13.7749C17.7196 14.119 17.555 14.5564 17.5503 15.01V18.4628C17.548 18.8326 17.6593 19.1942 17.869 19.4987L20.286 23.1109C20.9638 24.1397 21.324 25.3451 21.3219 26.577H27.0191C27.0123 25.3686 27.3534 24.1838 28.0018 23.164V23.164Z" stroke="#2D2F30" stroke-width="1.5" stroke-linecap="round" stroke-linejoin="round"/>
<path d="M17.5244 19.0737H30.2601" stroke="#2D2F30" stroke-width="1.5" stroke-linecap="round" stroke-linejoin="round"/>
<path d="M21.2958 26.6169H26.9531V28.5027C26.9531 29.2529 26.6551 29.9724 26.1246 30.5029C25.5942 31.0334 24.8747 31.3314 24.1245 31.3314C23.3742 31.3314 22.6548 31.0334 22.1243 30.5029C21.5938 29.9724 21.2958 29.2529 21.2958 28.5027V26.6169V26.6169Z" stroke="#2D2F30" stroke-width="1.5" stroke-linecap="round" stroke-linejoin="round"/>
</svg>
