<svg width="33" height="33" viewBox="0 0 33 33" fill="none" xmlns="http://www.w3.org/2000/svg">
<path d="M24.439 8.66633L21.1599 8.69365L19.5477 5.85182L21.1872 2.98266L24.4663 2.96899L26.0921 5.81083L24.439 8.66633Z" stroke="#2D2F30" stroke-width="1.5" stroke-linecap="round" stroke-linejoin="round"/>
<path d="M6.12078 19.3694L19.4557 27.0684L21.0952 24.2286L7.7603 16.5297L6.12078 19.3694Z" stroke="#2D2F30" stroke-width="1.5" stroke-linecap="round" stroke-linejoin="round"/>
<path d="M24.3163 29.9119L21.0372 29.9393L19.425 27.0838L21.0646 24.2283L24.3436 24.2146L25.9695 27.0564L24.3163 29.9119Z" stroke="#2D2F30" stroke-width="1.5" stroke-linecap="round" stroke-linejoin="round"/>
<path d="M24.3298 24.2144L24.4118 8.67993L21.1601 8.69359L21.0781 24.228L24.3298 24.2144Z" stroke="#2D2F30" stroke-width="1.5" stroke-linecap="round" stroke-linejoin="round"/>
<path d="M2.82508 19.419L1.19922 16.5772L2.8524 13.7217L6.11778 13.708L7.74364 16.5498L6.09045 19.4053L2.82508 19.419Z" stroke="#2D2F30" stroke-width="1.5" stroke-linecap="round" stroke-linejoin="round"/>
<path d="M21.1609 8.69365L7.74415 16.5224L6.13196 13.7078L19.5487 5.86548L21.1609 8.69365Z" stroke="#2D2F30" stroke-width="1.5" stroke-linecap="round" stroke-linejoin="round"/>
<path d="M30.5335 23.0122L27.4185 21.2224" stroke="#2D2F30" stroke-width="0.75" stroke-linecap="round" stroke-linejoin="round" stroke-dasharray="0.26 1.8"/>
<path d="M30.5335 10.1555L27.4185 11.9453" stroke="#2D2F30" stroke-width="0.75" stroke-linecap="round" stroke-linejoin="round" stroke-dasharray="0.26 1.8"/>
<path d="M32.1992 16.4268H28.9475" stroke="#2D2F30" stroke-width="0.75" stroke-linecap="round" stroke-linejoin="round"/>
<path d="M8.8645 2.83252L10.4904 5.64703" stroke="#2D2F30" stroke-width="0.75" stroke-linecap="round" stroke-linejoin="round"/>
<path d="M15.0526 1.30225V4.88186" stroke="#2D2F30" stroke-width="0.75" stroke-linecap="round" stroke-linejoin="round" stroke-dasharray="0.26 1.8"/>
<path d="M3.91846 7.72363L7.01988 9.5271" stroke="#2D2F30" stroke-width="0.75" stroke-linecap="round" stroke-linejoin="round" stroke-dasharray="0.26 1.8"/>
<path d="M8.52283 30.0484L10.135 27.2339" stroke="#2D2F30" stroke-width="0.75" stroke-linecap="round" stroke-linejoin="round"/>
<path d="M4.04114 24.9248L7.15623 23.135" stroke="#2D2F30" stroke-width="0.75" stroke-linecap="round" stroke-linejoin="round" stroke-dasharray="0.26 1.8"/>
<path d="M15.1902 31.3601V27.7668" stroke="#2D2F30" stroke-width="0.75" stroke-linecap="round" stroke-linejoin="round" stroke-dasharray="0.26 1.8"/>
</svg>
