<svg width="33" height="33" viewBox="0 0 33 33" fill="none" xmlns="http://www.w3.org/2000/svg">
<path d="M22.5854 16.1721H14.2592C14.2023 16.1716 14.1462 16.1863 14.0967 16.2145C14.0472 16.2428 14.0062 16.2837 13.9777 16.333L9.80792 23.5463C9.78195 23.5984 9.76843 23.6558 9.76843 23.7139C9.76843 23.7721 9.78195 23.8295 9.80792 23.8815L13.9777 31.0814C14.0032 31.1342 14.0432 31.1787 14.0931 31.2095C14.143 31.2404 14.2006 31.2564 14.2592 31.2557H22.5854C22.6454 31.2545 22.7041 31.2378 22.7557 31.2073C22.8074 31.1768 22.8503 31.1334 22.8803 31.0814L27.0367 23.8815C27.069 23.8316 27.0862 23.7734 27.0862 23.7139C27.0862 23.6545 27.069 23.5962 27.0367 23.5463L22.9474 16.333C22.9092 16.2739 22.8546 16.2273 22.7903 16.1987C22.726 16.1701 22.6548 16.1609 22.5854 16.1721V16.1721Z" stroke="#2D2F30" stroke-width="1.5" stroke-linecap="round" stroke-linejoin="round"/>
<path d="M13.7903 30.76L10.0094 24.2171C9.98274 24.1634 9.94165 24.1182 9.89071 24.0867C9.83978 24.0551 9.78104 24.0383 9.72111 24.0383C9.66118 24.0383 9.60244 24.0551 9.55151 24.0867C9.50058 24.1182 9.45948 24.1634 9.43285 24.2171L5.66531 30.76C5.63343 30.8094 5.61569 30.8666 5.61402 30.9254C5.61235 30.9841 5.62681 31.0422 5.65582 31.0934C5.68484 31.1445 5.72731 31.1867 5.77862 31.2154C5.82993 31.2441 5.88812 31.2582 5.94687 31.2561H13.5624C13.6149 31.2461 13.6642 31.2237 13.7062 31.1908C13.7483 31.1578 13.7819 31.1153 13.8042 31.0668C13.8265 31.0183 13.8369 30.9651 13.8344 30.9117C13.832 30.8584 13.8169 30.8064 13.7903 30.76V30.76Z" stroke="#2D2F30" stroke-width="1.5" stroke-linecap="round" stroke-linejoin="round"/>
<path d="M9.7138 23.7074L1.29382 9.13338C1.26247 9.08193 1.24557 9.02298 1.24489 8.96273C1.24422 8.90249 1.25979 8.84317 1.28998 8.79103C1.32017 8.73889 1.36385 8.69584 1.41644 8.66643C1.46902 8.63702 1.52856 8.62232 1.58879 8.62389H18.4287" stroke="#2D2F30" stroke-width="1.5" stroke-linecap="round" stroke-linejoin="round"/>
<path d="M22.491 1.58504L14.3526 15.663C14.3255 15.7151 14.3119 15.7732 14.3132 15.8319C14.3145 15.8906 14.3306 15.948 14.36 15.9989C14.3894 16.0497 14.4312 16.0922 14.4815 16.1226C14.5318 16.153 14.5889 16.1701 14.6476 16.1725H30.911C30.9701 16.1717 31.0279 16.1552 31.0786 16.1248C31.1293 16.0945 31.1711 16.0512 31.1996 15.9995C31.2282 15.9477 31.2426 15.8894 31.2414 15.8303C31.2401 15.7712 31.2233 15.7135 31.1926 15.663L23.0676 1.58504C23.0409 1.53135 22.9998 1.48616 22.9489 1.45457C22.898 1.42299 22.8392 1.40625 22.7793 1.40625C22.7194 1.40625 22.6606 1.42299 22.6097 1.45457C22.5588 1.48616 22.5177 1.53135 22.491 1.58504V1.58504Z" stroke="#2D2F30" stroke-width="1.5" stroke-linecap="round" stroke-linejoin="round"/>
</svg>
